Coordinates
version=1
nRows=7
nColumns=63
inDegrees=yes

Units are S.I. units (second, meters, Newtons, ...)
If the header above contains a line with 'inDegrees', this indicates whether rotational values are in degrees (yes) or radians (no).

endheader
time	pelvis_tilt	pelvis_list	pelvis_rotation	pelvis_tx	pelvis_ty	pelvis_tz	hip_flexion_r	hip_adduction_r	hip_rotation_r	knee_angle_r	knee_angle_r_beta	ankle_angle_r	subtalar_angle_r	mtp_angle_r	hip_flexion_l	hip_adduction_l	hip_rotation_l	knee_angle_l	knee_angle_l_beta	ankle_angle_l	subtalar_angle_l	mtp_angle_l	L5_S1_Flex_Ext	L5_S1_Lat_Bending	L5_S1_axial_rotation	L4_L5_Flex_Ext	L4_L5_Lat_Bending	L4_L5_axial_rotation	L3_L4_Flex_Ext	L3_L4_Lat_Bending	L3_L4_axial_rotation	L2_L3_Flex_Ext	L2_L3_Lat_Bending	L2_L3_axial_rotation	L1_L2_Flex_Ext	L1_L2_Lat_Bending	L1_L2_axial_rotation	L1_T12_Flex_Ext	L1_T12_Lat_Bending	L1_T12_axial_rotation	Abs_r3	Abs_r2	Abs_r1	Abs_t1	Abs_t2	neck_flexion	neck_bending	neck_rotation	arm_flex_r	arm_add_r	arm_rot_r	elbow_flex_r	pro_sup_r	wrist_flex_r	wrist_dev_r	arm_flex_l	arm_add_l	arm_rot_l	elbow_flex_l	pro_sup_l	wrist_flex_l	wrist_dev_l
      5.53703704	     -4.72001389	     -6.15455349	     89.79600178	      0.24557774	      0.78991668	      0.73093228	     18.36221511	     -2.89740452	      9.74365335	     17.23251995	      0.30076421	     21.55582777	    -11.73859738	      0.00000000	     12.37891000	      2.30349294	     -8.69292706	      5.16367887	      0.09012320	     17.11287290	      3.03671541	      0.00000000	      0.85459151	     -1.17944638	      3.79333656	      1.58706189	     -1.56866369	      4.03042010	      1.40400839	     -2.86770593	      4.03042010	      0.97671263	     -2.86770593	      3.31916949	      0.79357367	     -2.40512706	      3.08208596	      0.48831359	     -1.82696244	      2.84500242	      6.10426167	    -13.34213336	     21.09739996	      0.00000000	      0.00000000	     28.41359724	    -18.50175374	    -39.94337723	    133.85798324	    -31.70891201	    127.70327179	      6.73218857	      6.47573026	    -10.90638047	     -5.78461627	     52.77524725	     -2.23571377	     25.40413781	    100.16574322	     71.58067484	    -14.34635759	     -0.08514708
      5.55555556	     -4.95593702	     -6.32828668	     89.89287335	      0.24666698	      0.79105317	      0.72923882	     18.37089013	     -3.08679304	      9.61192184	     17.24510698	      0.30098390	     21.59856103	    -11.86938278	      0.00000000	     12.38623022	      2.46869326	     -9.09409746	      5.01325087	      0.08749773	     16.86691147	      3.77453972	      0.00000000	      0.85115917	     -1.21877501	      3.84133693	      1.58068770	     -1.62097076	      4.08142048	      1.39836940	     -2.96332956	      4.08142048	      0.97278982	     -2.96332956	      3.36116981	      0.79038641	     -2.48532600	      3.12108625	      0.48635235	     -1.88788249	      2.88100269	      6.07974484	    -13.78702668	     21.36436358	      0.00000000	      0.00000000	     28.41834497	    -17.72006501	    -37.33876154	    137.57960581	    -31.16772732	    132.61696294	      6.42619739	     10.78072323	    -11.03586252	     -3.97606991	     53.00397300	     -2.64450050	     25.23079612	    100.89252083	     73.45703404	    -14.96623338	     -3.45240146
      5.57407407	     -5.06476857	     -6.45549576	     89.99715064	      0.24720330	      0.79238800	      0.72753189	     18.30536046	     -3.20263846	      9.33299826	     17.22663039	      0.30066142	     21.48434896	    -11.89680791	      0.00000000	     12.27859061	      2.56165416	     -9.33383773	      4.76274694	      0.08312562	     16.55725967	      4.39224692	      0.00000000	      0.82129192	     -1.23204454	      3.79697166	      1.52522122	     -1.63861924	      4.03428239	      1.34930049	     -2.99559310	      4.03428239	      0.93865453	     -2.99559310	      3.32235020	      0.76265167	     -2.51238523	      3.08503947	      0.46928620	     -1.90843700	      2.84772874	      5.86640604	    -13.93713427	     21.11761727	      0.00000000	      0.00000000	     28.41814218	    -16.93182458	    -34.39787519	    141.64717679	    -29.89189783	    140.10405934	      5.91720005	     16.76795599	    -10.69344974	     -1.23015788	     53.46838487	     -3.17761689	     24.46477934	    102.00059002	     75.11537661	    -16.15190962	     -5.05526673
      5.59259259	     -4.98815959	     -6.51100873	     89.88573485	      0.24740793	      0.79379009	      0.72582158	     18.13758980	     -3.14359956	      9.03523892	     17.08293004	      0.29815338	     21.22258132	    -11.47372313	      0.00000000	     12.05663813	      2.46916444	     -9.57857495	      4.47054048	      0.07802565	     16.27042293	      4.84076000	      0.00000000	      0.76990060	     -1.21377339	      3.70351744	      1.42978241	     -1.61431861	      3.93498728	      1.26486970	     -2.95116862	      3.93498728	      0.87991940	     -2.95116862	      3.24057776	      0.71492970	     -2.47512670	      3.00910792	      0.43992120	     -1.88013498	      2.77763808	      5.49932300	    -13.73044735	     20.59785296	      0.00000000	      0.00000000	     28.40806766	    -16.64773648	    -32.52449888	    145.54257841	    -28.00844780	    148.97077105	      5.06646756	     23.16566156	    -10.03001418	      0.71853691	     54.25126814	     -3.81196345	     23.05422595	    103.48843965	     76.04908209	    -17.48675792	     -4.05263253
      5.61111111	     -4.84612223	     -6.50168190	     89.59306614	      0.24750988	      0.79502690	      0.72418550	     17.96965117	     -3.04541263	      8.46273538	     16.97069214	      0.29619445	     20.98442443	    -10.40912071	      0.00000000	     11.76341345	      2.29216980	    -10.17210498	      4.18013451	      0.07295711	     16.04093592	      5.40788763	      0.00000000	      0.70524964	     -1.18759098	      3.58604770	      1.30971910	     -1.57949600	      3.81017569	      1.15865463	     -2.88750871	      3.81017569	      0.80602981	     -2.88750871	      3.13779174	      0.65489481	     -2.42173553	      2.91366376	      0.40297964	     -1.83957843	      2.68953578	      5.03752764	    -13.43426670	     19.94452151	      0.00000000	      0.00000000	     28.38255780	    -16.93860366	    -32.17620766	    149.00993535	    -25.82886231	    165.72621277	      3.66687593	     20.26541819	     -9.53161624	      2.22113732	     55.52051704	     -4.42726806	     21.07081098	    104.77248251	     77.52359872	    -18.36262019	     -1.58016971
      5.62962963	     -4.67686201	     -6.35021235	     89.28929945	      0.24734324	      0.79622724	      0.72279035	     17.67479074	     -2.93203106	      8.08327953	     16.84043641	      0.29392106	     20.57112098	     -9.37134228	      0.00000000	     11.37136710	      2.12676163	    -10.24437010	      3.92340403	      0.06847632	     15.84533386	      5.26710639	      0.00000000	      0.63002476	     -1.14340330	      3.41999867	      1.17001898	     -1.52072639	      3.63374859	      1.03506768	     -2.78007079	      3.63374859	      0.72005530	     -2.78007079	      2.99249884	      0.58504099	     -2.33162802	      2.77874892	      0.35999615	     -1.77113172	      2.56499900	      4.50020386	    -12.93440684	     19.02100662	      0.00000000	      0.00000000	     28.34221880	    -17.39666321	    -31.84040895	    151.58461840	    -23.73736615	    171.37340263	      2.41849856	     25.25001065	    -10.91485619	      3.37293087	     57.16313498	     -5.23898836	     18.84635768	    105.77538120	     77.31429593	    -19.17994710	      1.43499172
      5.64814815	     -4.46856083	     -6.04735896	     88.81042458	      0.24715336	      0.79720901	      0.72191481	     17.32563583	     -2.75423274	      7.89157270	     16.76232685	      0.29255779	     20.31262651	     -8.22307278	      0.00000000	     10.83181966	      1.90323121	    -10.20584977	      3.59980470	      0.06282844	     15.89549647	      4.96695308	      0.00000000	      0.55362643	     -1.08147922	      3.26462093	      1.02813964	     -1.43836736	      3.46865974	      0.90955285	     -2.62950857	      3.46865974	      0.63273964	     -2.62950857	      2.85654331	      0.51409750	     -2.20535242	      2.65250451	      0.31634214	     -1.67521131	      2.44846570	      3.95449820	    -12.23390922	     18.15684223	      0.00000000	      0.00000000	     28.28243897	    -17.61161876	    -31.25302207	    153.68212688	    -21.77039111	    174.23226133	      1.45664752	     27.31905345	    -13.75133574	      3.75883753	     59.04246664	     -6.08042892	     16.35445244	    106.13180086	     77.17416390	    -19.38422090	      4.36939638
